<svg width="99" height="88" viewBox="0 0 99 88" fill="none" xmlns="http://www.w3.org/2000/svg">
<path d="M49.2188 52.497C54.0728 52.497 58.0078 48.562 58.0078 43.7079C58.0078 38.8538 54.0728 34.9188 49.2188 34.9188C44.3647 34.9188 40.4297 38.8538 40.4297 43.7079C40.4297 48.562 44.3647 52.497 49.2188 52.497Z" fill="#007ACC"/>
<path d="M49.2188 63.8594C38.6548 64.1149 28.1172 62.691 18 59.6407C13.3264 58.1591 8.96743 55.8253 5.14336 52.7571C3.68413 51.7089 2.46892 50.3575 1.58112 48.7955C0.693325 47.2335 0.153948 45.4979 0 43.7079C0 37.8965 6.38437 32.2012 17.0789 28.4747C27.4666 25.1726 38.32 23.5723 49.2188 23.7356C59.972 23.5854 70.68 25.1568 80.9367 28.3903C85.4377 29.8252 89.6489 32.0463 93.375 34.9504C94.8093 35.9497 96.0063 37.2522 96.8811 38.7656C97.756 40.279 98.2873 41.9663 98.4375 43.7079C98.4375 49.7477 91.3008 55.8684 79.8047 59.6723C69.8833 62.6232 59.5682 64.0353 49.2188 63.8594ZM49.2188 27.9403C38.7918 27.8009 28.4092 29.3223 18.4605 32.4473C8.6168 35.8821 4.20469 40.579 4.20469 43.6973C4.20469 46.9598 8.94727 52.0891 19.3605 55.6504C29.0393 58.5538 39.117 59.9054 49.2188 59.6547C59.1202 59.8318 68.9904 58.4921 78.4863 55.6821C89.2969 52.0997 94.2188 46.9633 94.2188 43.7079C94.0414 42.5907 93.6342 41.5224 93.0231 40.5706C92.4119 39.6187 91.61 38.804 90.668 38.1778C87.3343 35.6013 83.5724 33.6329 79.5551 32.3629C69.7431 29.2824 59.5019 27.7894 49.2188 27.9403Z" fill="#007ACC"/>
<path d="M29.2501 87.5442C27.6101 87.5819 25.9894 87.184 24.5532 86.3911C19.5188 83.4872 17.7751 75.113 19.888 63.986C22.2176 53.3375 26.2541 43.1359 31.8411 33.7763C37.082 24.3864 43.7914 15.8955 51.7149 8.62548C55.2065 5.4428 59.2344 2.90395 63.6118 1.12665C65.1951 0.384639 66.9223 0 68.6708 0C70.4193 0 72.1465 0.384639 73.7298 1.12665C78.9645 4.14306 80.6978 13.3821 78.2544 25.2403C75.8528 35.3111 71.9212 44.954 66.5966 53.8329C61.5402 63.1119 55.042 71.5289 47.345 78.7692C43.7267 82.0767 39.5274 84.6858 34.9595 86.4649C33.1307 87.1437 31.2004 87.5086 29.2501 87.5442ZM35.4833 35.8645C30.154 44.827 26.2852 54.5807 24.0224 64.7595C22.0782 75.0075 23.945 81.1704 26.6591 82.7384C29.4716 84.3661 36.2989 82.8227 44.5888 75.5806C51.9365 68.6441 58.1388 60.5871 62.9649 51.7095C68.0659 43.221 71.8373 34.0018 74.1481 24.372C76.4474 13.2099 74.461 6.37548 71.6415 4.75126C70.5847 4.34635 69.4555 4.1651 68.3251 4.21895C67.1947 4.27281 66.0878 4.56061 65.0743 5.06415C61.1779 6.67201 57.5956 8.95465 54.4923 11.8071C46.922 18.7708 40.5131 26.8995 35.5079 35.8856L35.4833 35.8645Z" fill="#007ACC"/>
<path d="M69.1769 87.5899C64.4132 87.5899 58.3628 84.7071 52.0628 79.2895C44.0004 71.9534 37.1776 63.3616 31.8585 53.8469C26.3415 44.6161 22.337 34.5621 19.9968 24.0661C18.9818 19.4483 18.7938 14.6871 19.4413 10.0036C19.591 8.26617 20.12 6.58277 20.9911 5.07207C21.8622 3.56137 23.0541 2.26017 24.4827 1.26021C29.7104 -1.76674 38.5804 1.34458 47.6331 9.3813C55.1586 16.4905 61.5493 24.7119 66.5823 33.7586C72.0959 42.7739 76.1424 52.6078 78.5706 62.8926C79.6292 67.6799 79.7925 72.6217 79.0522 77.4684C78.8761 79.2558 78.3155 80.9839 77.409 82.5343C76.5024 84.0848 75.2712 85.4208 73.7999 86.4508C72.3872 87.2338 70.7916 87.627 69.1769 87.5899ZM35.4972 51.7305C40.5998 60.8234 47.1173 69.0462 54.805 76.0903C62.7116 82.893 68.9835 84.3555 71.68 82.77C74.4925 81.1352 76.5667 74.4625 74.4292 63.6661C72.0874 53.8467 68.2061 44.4599 62.9296 35.854C58.1266 27.1954 52.0267 19.323 44.8417 12.5102C36.3198 4.94458 29.4081 3.25357 26.5921 4.88482C25.7144 5.59807 24.9941 6.48557 24.4768 7.49126C23.9594 8.49695 23.6562 9.59899 23.5862 10.7278C23.0273 14.9047 23.2093 19.1474 24.1241 23.261C26.3752 33.2986 30.2158 42.912 35.5007 51.7375L35.4972 51.7305Z" fill="#007ACC"/>
</svg>
