<svg width="82" height="82" viewBox="0 0 82 82" fill="none" xmlns="http://www.w3.org/2000/svg">
<path d="M62.7812 0H19.2188C8.60453 0 0 8.60453 0 19.2188V62.7812C0 73.3955 8.60453 82 19.2188 82H62.7812C73.3955 82 82 73.3955 82 62.7812V19.2188C82 8.60453 73.3955 0 62.7812 0Z" fill="#007ACC"/>
<path d="M18.1334 41.272L18.1074 44.6301H28.7802V74.957H36.33V44.6301H47.0028V41.337C47.0028 39.5147 46.9641 37.992 46.9118 37.9529C46.8728 37.901 40.3778 37.8747 32.5032 37.8879L18.1728 37.9269L18.1334 41.272ZM66.1661 37.8315C68.2485 38.3523 69.8366 39.2764 71.2943 40.7861C72.0493 41.5932 73.1685 43.0641 73.2598 43.4155C73.2857 43.5196 69.7194 45.9146 67.5589 47.2551C67.4807 47.3073 67.1681 46.9687 66.8167 46.4482C65.7626 44.9123 64.6562 44.2483 62.964 44.1314C60.478 43.962 58.8771 45.2637 58.8903 47.4373C58.8903 48.0751 58.9812 48.4524 59.2416 48.9732C59.7881 50.1055 60.8035 50.7824 63.9925 52.162C69.8626 54.6873 72.3744 56.3532 73.9366 58.722C75.6807 61.3642 76.0712 65.5814 74.8867 68.7183C73.5852 72.1283 70.3571 74.4451 65.8144 75.2132C64.4089 75.4605 61.0767 75.4214 59.5671 75.1482C56.2739 74.5624 53.1502 72.9355 51.2239 70.8009C50.4689 69.9678 48.998 67.7942 49.0893 67.6379C49.1281 67.586 49.4667 67.3778 49.844 67.1564C50.2085 66.9482 51.5884 66.1542 52.8898 65.3992L55.2457 64.0324L55.7403 64.7614C56.4303 65.8156 57.9399 67.2605 58.8512 67.742C61.4672 69.1219 65.0598 68.9265 66.8298 67.3387C67.5848 66.6487 67.8971 65.9328 67.8971 64.8787C67.8971 63.9283 67.7799 63.5119 67.2853 62.796C66.6476 61.885 65.3461 61.1169 61.6494 59.516C57.4194 57.6938 55.5971 56.5614 53.9312 54.7651C52.968 53.7241 52.0567 52.0579 51.6794 50.6651C51.3671 49.5069 51.2889 46.6042 51.5362 45.4328C52.4081 41.346 55.493 38.4955 59.9444 37.6492C61.3893 37.376 64.7472 37.4801 66.1661 37.8315Z" fill="white"/>
</svg>
